<?xml version="1.0" encoding="utf-8"?>
<svg version="1.1" id="Layer_1" xmlns="http://www.w3.org/2000/svg" xmlns:xlink="http://www.w3.org/1999/xlink" x="0px"
	y="0px" width="240px" height="66px" viewBox="0 0 240 66" enable-background="new 0 0 240 66" xml:space="preserve">
	<path fill="#FFFFFF"
		d="M35.332,62.256c-0.128,0.287-0.671,0.311-0.839,0.311H3.979L30.153,5.054c0.264-0.554,0.564-0.73,1.179-0.73
	h13.391c0.266,0,0.638,0.153,0.798,0.49l7.198,16.52l0.134,0.332c0.106,0.236,0.137,0.388,0.137,0.538
	c0,0.171-0.05,0.368-0.16,0.625l-0.045,0.092c-0.675,1.528-12.381,27.893-16.219,36.551L35.332,62.256z M65.109,49.648
	c0,0.541-0.134,0.984-0.409,1.346c-0.357,0.539-0.99,0.877-1.581,0.877l-19.375,0.008l11.281-25.415l5.42,12.004
	c2.7,5.992,4.366,9.686,4.377,9.709C65.015,48.703,65.109,49.186,65.109,49.648 M55.872,19.874L48.667,3.322
	c-0.773-1.648-2.362-2.755-3.944-2.755H31.332c-1.866,0-3.408,1.052-4.306,2.961L0.716,61.338c-0.512,1.229-0.464,2.43,0.132,3.357
	c0.561,0.908,1.571,1.42,2.744,1.42h30.901c1.826,0,3.338-0.896,4.008-2.414l3.667-8.26l20.785-0.029
	c0.093,0,0.166,0.006,0.245,0.006c1.663,0,3.327-0.902,4.339-2.363c1.163-1.648,1.355-3.834,0.527-6.135L55.872,19.874z" />
	<path fill="#FFFFFF" d="M166.618,4.229c0.211,0,0.393,0.076,0.544,0.237c0.292,0.298,0.469,0.891,0.469,1.603l-0.016,43.743
	c0,1.631-1.337,1.758-1.35,1.758h-25.3c-0.348,0-1.004-0.771-1.004-1.857V6.027c-0.019-0.675,0.124-1.208,0.372-1.484
	c0.185-0.187,0.45-0.283,0.843-0.283L166.618,4.229z M166.589,0.564h-25.438c-1.26,0.029-2.447,0.575-3.322,1.535
	c-0.87,0.938-1.331,2.283-1.331,3.793v43.82c0,2.604,1.8,5.402,4.468,5.402h25.3c2.307,0,4.806-2.029,4.806-5.303l0.029-43.743
	c0-2.125-0.81-3.422-1.49-4.11C168.751,1.058,167.682,0.564,166.589,0.564" />
	<path fill="#FFFFFF" d="M206.752,49.813c0,1.277-1.384,1.732-1.735,1.732h-24.564c-0.367,0-0.641-0.104-0.857-0.318
	c-0.303-0.328-0.49-0.908-0.49-1.535V6.325c0-0.796,0.274-2.122,2.21-2.122h4.07h19.698l0.106,0.01c0.098,0,0.197-0.01,0.256-0.01
	h1.32L206.752,49.813z M236.544,6.059c0,0.469-0.124,0.981-0.351,1.489l-11.616,26.351c-1.028,2.31-3.388,2.652-4.69,2.652
	l-9.665,0.035l0.029-32.383l24.548-0.008c0.537,0.077,1.138,0.222,1.47,0.77C236.446,5.284,236.544,5.655,236.544,6.059
	 M239.225,3.127c-0.915-1.532-2.485-2.452-4.345-2.563h-53.565c-3.902,0-5.669,2.996-5.669,5.761v43.367
	c0,1.582,0.529,3.043,1.495,4.043c0.862,0.893,2.009,1.377,3.307,1.377h24.569c2.188,0,5.2-1.852,5.2-5.299l0.005-9.686l9.665-0.021
	c1.73,0,5.916-0.459,7.854-4.713l11.624-26.384C240.261,6.95,240.205,4.743,239.225,3.127" />
	<path fill="#FFFFFF"
		d="M76.68,5.917c0-1.35,0.513-1.792,1.983-1.792c0.037,0,3.643,0.01,8.063,0.031
	c7.07,0.021,16.251,0.05,16.388,0.06c0.042,0,0.079-0.01,0.132-0.01h1.083l-0.005,45.691c0,1.607-1.332,1.746-1.332,1.746H77.683
	c-0.575,0-1.003-0.617-1.003-1.443V5.917z M112.456,36.563h-4.658l0.01-14.511h11.673c0.184,0,0.365,0.111,0.474,0.284
	c0.077,0.122,0.108,0.243,0.108,0.407c0,0.15-0.031,0.305-0.071,0.447l-0.084,0.174c-0.968,2.404-3.367,8.332-4.937,11.556
	C114.165,36.563,114.165,36.563,112.456,36.563 M128.217,4.714c0,0.1-0.006,0.177-0.021,0.232l-4.872,10.762
	c-1.203,2.868-1.308,2.868-4.047,2.868h-11.47l0.007-14.371h19.938c0.137,0,0.316,0.024,0.408,0.203
	C128.201,4.478,128.217,4.583,128.217,4.714 M128.032,0.564H78.663c-3.327,0-5.458,2.094-5.458,5.352v44.283
	c0,2.803,1.967,5.008,4.478,5.008h25.305c2.304,0,4.8-2.035,4.8-5.311l0.011-9.859h4.281c1.511-0.016,2.792,0.064,3.794-0.359
	c0.633-0.271,1.158-0.824,1.624-1.703l4.73-10.766c0.075-0.206,0.231-0.538,0.439-0.952c0.24-0.493,0.532-1.109,0.854-1.827
	c0.234-0.541,0.509-1.165,0.802-1.809l0.92-2.04c0.316-0.719,0.641-1.451,0.975-2.178c0.158-0.321,0.307-0.664,0.459-1.012
	c0.186-0.438,0.391-0.892,0.58-1.293l4.385-9.813c0.543-1.276,0.442-2.694-0.267-3.823C130.629,1.278,129.377,0.564,128.032,0.564" />
</svg>